<svg width="313" height="120" viewBox="0 0 313 120" fill="none" xmlns="http://www.w3.org/2000/svg">
<path d="M27.505 119.65C18.705 119.65 11.995 117.175 7.375 112.225C2.755 107.165 0.445 99.96 0.445 90.61V29.89C0.445 20.54 2.755 13.39 7.375 8.43999C11.995 3.37999 18.705 0.849994 27.505 0.849994C36.305 0.849994 43.015 3.37999 47.635 8.43999C52.255 13.39 54.565 20.54 54.565 29.89V39.79H37.405V28.735C37.405 21.145 34.27 17.35 28 17.35C21.73 17.35 18.595 21.145 18.595 28.735V91.93C18.595 99.41 21.73 103.15 28 103.15C34.27 103.15 37.405 99.41 37.405 91.93V69.325H28.33V52.825H54.565V90.61C54.565 99.96 52.255 107.165 47.635 112.225C43.015 117.175 36.305 119.65 27.505 119.65ZM80.2431 2.49999H104.828L123.638 118H105.488L102.188 95.065V95.395H81.5631L78.2631 118H61.4331L80.2431 2.49999ZM100.043 79.72L91.9581 22.63H91.6281L83.7081 79.72H100.043ZM132.444 2.49999H155.214L172.869 71.635H173.199V2.49999H189.369V118H170.724L148.944 33.685H148.614V118H132.444V2.49999ZM217.049 19H198.074V2.49999H254.174V19H235.199V118H217.049V19ZM262.961 2.49999H312.461V19H281.111V49.525H306.026V66.025H281.111V101.5H312.461V118H262.961V2.49999Z" fill="#E6E6E6"/>
</svg>
