<svg width="361" height="120" viewBox="0 0 361 120" fill="none" xmlns="http://www.w3.org/2000/svg">
<path d="M0.945664 2.49999H26.8507L38.4007 85.165H38.7307L50.2807 2.49999H76.1857V118H59.0257V30.55H58.6957L45.4957 118H30.3157L17.1157 30.55H16.7857V118H0.945664V2.49999ZM115.965 119.65C107.055 119.65 100.235 117.12 95.5048 112.06C90.7748 107 88.4098 99.85 88.4098 90.61V29.89C88.4098 20.65 90.7748 13.5 95.5048 8.43999C100.235 3.37999 107.055 0.849994 115.965 0.849994C124.875 0.849994 131.695 3.37999 136.425 8.43999C141.155 13.5 143.52 20.65 143.52 29.89V90.61C143.52 99.85 141.155 107 136.425 112.06C131.695 117.12 124.875 119.65 115.965 119.65ZM115.965 103.15C122.235 103.15 125.37 99.355 125.37 91.765V28.735C125.37 21.145 122.235 17.35 115.965 17.35C109.695 17.35 106.56 21.145 106.56 28.735V91.765C106.56 99.355 109.695 103.15 115.965 103.15ZM155.794 2.49999H173.944V118H155.794V2.49999ZM211.132 119.65C202.332 119.65 195.677 117.175 191.167 112.225C186.657 107.165 184.402 99.96 184.402 90.61V84.01H201.562V91.93C201.562 99.41 204.697 103.15 210.967 103.15C214.047 103.15 216.357 102.27 217.897 100.51C219.547 98.64 220.372 95.67 220.372 91.6C220.372 86.76 219.272 82.525 217.072 78.895C214.872 75.155 210.802 70.7 204.862 65.53C197.382 58.93 192.157 52.99 189.187 47.71C186.217 42.32 184.732 36.27 184.732 29.56C184.732 20.43 187.042 13.39 191.662 8.43999C196.282 3.37999 202.992 0.849994 211.792 0.849994C220.482 0.849994 227.027 3.37999 231.427 8.43999C235.937 13.39 238.192 20.54 238.192 29.89V34.675H221.032V28.735C221.032 24.775 220.262 21.915 218.722 20.155C217.182 18.285 214.927 17.35 211.957 17.35C205.907 17.35 202.882 21.035 202.882 28.405C202.882 32.585 203.982 36.49 206.182 40.12C208.492 43.75 212.617 48.15 218.557 53.32C226.147 59.92 231.372 65.915 234.232 71.305C237.092 76.695 238.522 83.02 238.522 90.28C238.522 99.74 236.157 107 231.427 112.06C226.807 117.12 220.042 119.65 211.132 119.65ZM248.929 2.49999H298.429V19H267.079V49.525H291.994V66.025H267.079V101.5H298.429V118H248.929V2.49999ZM332.788 119.65C323.988 119.65 317.333 117.175 312.823 112.225C308.313 107.165 306.058 99.96 306.058 90.61V84.01H323.218V91.93C323.218 99.41 326.353 103.15 332.623 103.15C335.703 103.15 338.013 102.27 339.553 100.51C341.203 98.64 342.028 95.67 342.028 91.6C342.028 86.76 340.928 82.525 338.728 78.895C336.528 75.155 332.458 70.7 326.518 65.53C319.038 58.93 313.813 52.99 310.843 47.71C307.873 42.32 306.388 36.27 306.388 29.56C306.388 20.43 308.698 13.39 313.318 8.43999C317.938 3.37999 324.648 0.849994 333.448 0.849994C342.138 0.849994 348.683 3.37999 353.083 8.43999C357.593 13.39 359.848 20.54 359.848 29.89V34.675H342.688V28.735C342.688 24.775 341.918 21.915 340.378 20.155C338.838 18.285 336.583 17.35 333.613 17.35C327.563 17.35 324.538 21.035 324.538 28.405C324.538 32.585 325.638 36.49 327.838 40.12C330.148 43.75 334.273 48.15 340.213 53.32C347.803 59.92 353.028 65.915 355.888 71.305C358.748 76.695 360.178 83.02 360.178 90.28C360.178 99.74 357.813 107 353.083 112.06C348.463 117.12 341.698 119.65 332.788 119.65Z" fill="#E6E6E6"/>
</svg>
