<svg width="707" height="120" viewBox="0 0 707 120" fill="none" xmlns="http://www.w3.org/2000/svg">
<path d="M0.163926 2.49999H26.0689L37.6189 85.165H37.9489L49.4989 2.49999H75.4039V118H58.2439V30.55H57.9139L44.7139 118H29.5339L16.3339 30.55H16.0039V118H0.163926V2.49999ZM115.183 119.65C106.273 119.65 99.4531 117.12 94.7231 112.06C89.9931 107 87.6281 99.85 87.6281 90.61V29.89C87.6281 20.65 89.9931 13.5 94.7231 8.43999C99.4531 3.37999 106.273 0.849994 115.183 0.849994C124.093 0.849994 130.913 3.37999 135.643 8.43999C140.373 13.5 142.738 20.65 142.738 29.89V90.61C142.738 99.85 140.373 107 135.643 112.06C130.913 117.12 124.093 119.65 115.183 119.65ZM115.183 103.15C121.453 103.15 124.588 99.355 124.588 91.765V28.735C124.588 21.145 121.453 17.35 115.183 17.35C108.913 17.35 105.778 21.145 105.778 28.735V91.765C105.778 99.355 108.913 103.15 115.183 103.15ZM155.013 2.49999H173.163V118H155.013V2.49999ZM210.351 119.65C201.551 119.65 194.896 117.175 190.386 112.225C185.876 107.165 183.621 99.96 183.621 90.61V84.01H200.781V91.93C200.781 99.41 203.916 103.15 210.186 103.15C213.266 103.15 215.576 102.27 217.116 100.51C218.766 98.64 219.591 95.67 219.591 91.6C219.591 86.76 218.491 82.525 216.291 78.895C214.091 75.155 210.021 70.7 204.081 65.53C196.601 58.93 191.376 52.99 188.406 47.71C185.436 42.32 183.951 36.27 183.951 29.56C183.951 20.43 186.261 13.39 190.881 8.43999C195.501 3.37999 202.211 0.849994 211.011 0.849994C219.701 0.849994 226.246 3.37999 230.646 8.43999C235.156 13.39 237.411 20.54 237.411 29.89V34.675H220.251V28.735C220.251 24.775 219.481 21.915 217.941 20.155C216.401 18.285 214.146 17.35 211.176 17.35C205.126 17.35 202.101 21.035 202.101 28.405C202.101 32.585 203.201 36.49 205.401 40.12C207.711 43.75 211.836 48.15 217.776 53.32C225.366 59.92 230.591 65.915 233.451 71.305C236.311 76.695 237.741 83.02 237.741 90.28C237.741 99.74 235.376 107 230.646 112.06C226.026 117.12 219.261 119.65 210.351 119.65ZM248.147 2.49999H297.647V19H266.297V49.525H291.212V66.025H266.297V101.5H297.647V118H248.147V2.49999ZM332.006 119.65C323.206 119.65 316.551 117.175 312.041 112.225C307.531 107.165 305.276 99.96 305.276 90.61V84.01H322.436V91.93C322.436 99.41 325.571 103.15 331.841 103.15C334.921 103.15 337.231 102.27 338.771 100.51C340.421 98.64 341.246 95.67 341.246 91.6C341.246 86.76 340.146 82.525 337.946 78.895C335.746 75.155 331.676 70.7 325.736 65.53C318.256 58.93 313.031 52.99 310.061 47.71C307.091 42.32 305.606 36.27 305.606 29.56C305.606 20.43 307.916 13.39 312.536 8.43999C317.156 3.37999 323.866 0.849994 332.666 0.849994C341.356 0.849994 347.901 3.37999 352.301 8.43999C356.811 13.39 359.066 20.54 359.066 29.89V34.675H341.906V28.735C341.906 24.775 341.136 21.915 339.596 20.155C338.056 18.285 335.801 17.35 332.831 17.35C326.781 17.35 323.756 21.035 323.756 28.405C323.756 32.585 324.856 36.49 327.056 40.12C329.366 43.75 333.491 48.15 339.431 53.32C347.021 59.92 352.246 65.915 355.106 71.305C357.966 76.695 359.396 83.02 359.396 90.28C359.396 99.74 357.031 107 352.301 112.06C347.681 117.12 340.916 119.65 332.006 119.65ZM421.968 119.65C413.168 119.65 406.458 117.175 401.838 112.225C397.218 107.165 394.908 99.96 394.908 90.61V29.89C394.908 20.54 397.218 13.39 401.838 8.43999C406.458 3.37999 413.168 0.849994 421.968 0.849994C430.768 0.849994 437.478 3.37999 442.098 8.43999C446.718 13.39 449.028 20.54 449.028 29.89V39.79H431.868V28.735C431.868 21.145 428.733 17.35 422.463 17.35C416.193 17.35 413.058 21.145 413.058 28.735V91.93C413.058 99.41 416.193 103.15 422.463 103.15C428.733 103.15 431.868 99.41 431.868 91.93V69.325H422.793V52.825H449.028V90.61C449.028 99.96 446.718 107.165 442.098 112.225C437.478 117.175 430.768 119.65 421.968 119.65ZM474.707 2.49999H499.292L518.102 118H499.952L496.652 95.065V95.395H476.027L472.727 118H455.897L474.707 2.49999ZM494.507 79.72L486.422 22.63H486.092L478.172 79.72H494.507ZM526.907 2.49999H549.677L567.332 71.635H567.662V2.49999H583.832V118H565.187L543.407 33.685H543.077V118H526.907V2.49999ZM611.512 19H592.537V2.49999H648.637V19H629.662V118H611.512V19ZM657.425 2.49999H706.925V19H675.575V49.525H700.49V66.025H675.575V101.5H706.925V118H657.425V2.49999Z" fill="#E6E6E6"/>
</svg>
